<?xml version="1.0" encoding="utf-8"?>
<!-- Generator: Adobe Illustrator 23.0.2, SVG Export Plug-In . SVG Version: 6.00 Build 0)  -->
<svg version="1.1" xmlns="http://www.w3.org/2000/svg" xmlns:xlink="http://www.w3.org/1999/xlink" x="0px" y="0px"
	 viewBox="0 0 750 340.7" style="enable-background:new 0 0 750 340.7;" xml:space="preserve">
<style type="text/css">
	.st0{opacity:0.51;fill:#C6C899;}
	.st1{fill:#FFB700;}
	.st2{fill:#3F73AC;}
	.st3{fill:#FFCD5F;}
	.st4{fill:#D69400;}
	.st5{opacity:0.55;fill:#D69400;}
	.st6{fill:none;stroke:#D69400;stroke-miterlimit:10;}
	.st7{fill:#FB257D;}
	.st8{opacity:0.27;fill:#FEFEFE;}
	.st9{fill:#FC9D99;}
	.st10{fill:#E28A8A;}
	.st11{fill:#55A1E5;}
	.st12{fill:#7A2D33;}
	.st13{fill:none;stroke:#773331;stroke-width:0.9782;stroke-linecap:round;stroke-miterlimit:10;}
	.st14{fill:none;stroke:#FB257D;stroke-width:1.8781;stroke-linecap:round;stroke-miterlimit:10;}
	.st15{fill:none;stroke:#AA4944;stroke-width:0.939;stroke-miterlimit:10;}
	.st16{fill:#FFFFEB;}
	.st17{fill:none;stroke:#AA4944;stroke-miterlimit:10;}
	.st18{fill:none;stroke:#2C5477;stroke-miterlimit:10;}
	.st19{opacity:0.29;fill:#FB257D;}
	.st20{opacity:0.6;fill:#D25C53;}
	.st21{fill:#385445;}
	.st22{fill:#F962B1;}
	.st23{fill:#8E164C;}
	.st24{fill:#3A1414;}
	.st25{fill:none;stroke:#3A1414;stroke-width:0.7;stroke-linecap:round;stroke-miterlimit:10;}
	.st26{fill:none;stroke:#3A1414;stroke-linecap:round;stroke-miterlimit:10;}
	.st27{fill:#9E3C3C;}
	.st28{fill:#1D2B23;}
	.st29{fill:#E65955;}
	.st30{fill:#C14949;}
	.st31{fill:#6D2929;}
	.st32{fill:none;stroke:#933F3D;stroke-width:0.939;stroke-miterlimit:10;}
	.st33{fill:none;stroke:#3A1414;stroke-width:2;stroke-linecap:round;stroke-miterlimit:10;}
	.st34{opacity:0.23;fill:#FFFFEB;}
	.st35{fill:#315177;}
	.st36{fill:none;stroke:#315177;stroke-miterlimit:10;}
	.st37{fill:none;stroke:#2D333C;stroke-width:0.4636;stroke-miterlimit:10;}
	.st38{fill:none;stroke:#916400;stroke-miterlimit:10;}
	.st39{fill:#D32071;}
	.st40{fill:#2C5477;}
	.st41{fill:none;stroke:#3F73AC;stroke-linecap:round;stroke-miterlimit:10;}
	.st42{fill:#006DDF;}
	.st43{fill:#C02CDD;}
	.st44{fill:#00BF15;}
	.st45{fill:#FF7500;}
	.st46{fill:#FF4252;}
	.st47{opacity:0.38;fill:url(#SVGID_1_);}
	.st48{opacity:0.34;fill:#26303A;}
</style>
<g id="BACKGROUND">
</g>
<g id="OBJECTS">
	<g>
		<g>
			<ellipse class="st0" cx="611.5" cy="335.2" rx="61.8" ry="5.5"/>
			<g>
				<g>
					<polygon class="st1" points="644.9,148.9 649.6,325.7 626.5,325.7 622.7,206.4 622.7,148.9 					"/>
					<path class="st2" d="M626.5,325.7v8h29.7c0,0,0.4-4.5-8-8C626.5,325.7,626.5,325.7,626.5,325.7z"/>
					<path class="st1" d="M647.7,327.2c0,0.8-0.7,1.5-1.5,1.5h-8.6c-0.8,0-1.5-0.7-1.5-1.5l0,0c0-0.8,0.7-1.5,1.5-1.5h8.6
						C647,325.7,647.7,326.4,647.7,327.2L647.7,327.2z"/>
					<polygon class="st1" points="601.2,148.9 580.7,325.7 603,325.7 622.7,191 622.7,148.9 					"/>
					<path class="st2" d="M603,325.7l-1.3,8H571c0,0,2.7-8,9.6-8C589,325.7,603,325.7,603,325.7z"/>
					<path class="st1" d="M592.7,327.2c0,0.8-0.7,1.5-1.5,1.5h-9.1c-0.8,0-1.5-0.7-1.5-1.5l0,0c0-0.8,0.7-1.5,1.5-1.5h9.1
						C592,325.7,592.7,326.4,592.7,327.2L592.7,327.2z"/>
					<polygon class="st3" points="645.1,325.7 649.6,325.7 644.9,148.9 638.2,148.9 					"/>
					<polygon class="st4" points="586.8,325.7 609,148.9 601.2,148.9 580.7,325.7 					"/>
					<path class="st5" d="M645.4,170.5l-0.6-21.6h-12.4C633,150.7,638.1,165.7,645.4,170.5z"/>
					<path class="st5" d="M599.3,165.2c6.5-3.8,11.3-11.8,13.5-16.3h-11.6L599.3,165.2z"/>
					<line class="st6" x1="622.7" y1="191" x2="622.7" y2="148.9"/>
					<line class="st6" x1="610.5" y1="191" x2="631" y2="191"/>
					<polygon class="st5" points="626.5,325.7 649.6,325.7 649.3,314.2 626.2,314.2 					"/>
					<polygon class="st5" points="582,314.2 580.7,325.7 603,325.7 604.7,314.2 					"/>
				</g>
				<g>
					<path class="st7" d="M636.7,14.1c0,0,1.2-5.4,8-4.3c6.8,1.2,18,12.9,12.5,29.6c-5.5,16.7-6.3,38.1-6.3,38.1l-17.7-7.2
						c0,0-0.3-15.3,5.2-27.9s4.8-22.6,1-24.3C635.6,16.6,636.7,14.1,636.7,14.1z"/>
					<path class="st8" d="M657.2,39.5c4.7-14.3-2.8-24.9-9.3-28.4c3.9,5.8,8.6,15.9,4,26.2c-3.8,8.6-7.7,23.4-10,36.6l9,3.7
						C650.9,77.5,651.7,56.2,657.2,39.5z"/>
					<circle class="st2" cx="637.5" cy="19.7" r="4.9"/>
					<path class="st9" d="M643.1,64.6l0.1,0c8.3,2.6,14.2,9.9,14.9,18.5l4.3,47.4h-17.7l-8.2-25.7L643.1,64.6z"/>
					<path class="st9" d="M602.9,64.6l-0.1,0c-8.3,2.6-14.2,9.9-14.9,18.5l-4.3,47.4h17.7l8.2-25.7L602.9,64.6z"/>
					<path class="st10" d="M663.5,78.5l-17.9,46.8c-1.8,4.7,0.1,10,4.5,12.4l0.2,0.1c5.5,3.1,12.6,0.4,14.6-5.7l17.7-53.7H663.5z"/>
					<path class="st10" d="M582.5,78.5l17.9,46.8c1.8,4.7-0.1,10-4.5,12.4l-0.2,0.1c-5.5,3.1-12.6,0.4-14.6-5.7l-17.7-53.7H582.5z"
						/>
					<path class="st2" d="M623,75.5v73.4h-21.8V110c0,0-5.3-12.5-2.5-26.5c2.8-14,3.8-18.9,3.8-18.9L623,58V75.5z"/>
					<path class="st2" d="M623,75.5v73.4h21.8V110c0,0,5.3-12.5,2.5-26.5c-2.8-14-3.8-18.9-3.8-18.9L623,58V75.5z"/>
					<rect x="601.7" y="87.2" class="st11" width="15" height="6.3"/>
					<path class="st11" d="M628.4,83.1c0,0.8-0.7,1.5-1.5,1.5s-1.5-0.7-1.5-1.5c0-0.8,0.7-1.5,1.5-1.5S628.4,82.3,628.4,83.1z"/>
					<circle class="st11" cx="626.9" cy="104.9" r="1.5"/>
					<path class="st11" d="M628.4,126.6c0,0.8-0.7,1.5-1.5,1.5s-1.5-0.7-1.5-1.5c0-0.8,0.7-1.5,1.5-1.5S628.4,125.8,628.4,126.6z"/>
					<polygon class="st11" points="618,55.8 608.1,73.4 622.7,66.7 					"/>
					<polygon class="st11" points="628,55.8 637.9,73.4 623.3,66.7 					"/>
					<path class="st7" d="M611.6,23.4c0,0,4.1-6.1,11.3-6.7c7.2-0.6,14.7,0.2,16.2,9.7c1.5,9.5-11.8,20.4-11.8,20.4
						S611.6,28.2,611.6,23.4z"/>
					<polygon class="st9" points="618,47.1 618,61.7 623,75.5 628.4,61.3 628.4,37.3 					"/>
					<path class="st12" d="M618,55.8c3.3-2.8,8.9-8.8,9.4-17.6l-9.4,9V55.8z"/>
					<path class="st9" d="M611.6,23.4c0,0-4.4,5.6-4.1,16.2c0.1,3.9,0.4,6.9,0.8,9c0.5,3,3.4,5.1,6.4,4.4c2.7-0.6,5.9-1.8,8.5-4
						c4.4-4.1,5-15,5-15S614.4,28.8,611.6,23.4z"/>
					<path class="st13" d="M612.7,35.7c0,0,1.8-0.7,4.5,0.5"/>
					<path class="st14" d="M613.6,31.4c0,0,2.5-1.3,4.8,1"/>
					<polyline class="st15" points="609.5,38.3 608.5,43.1 611.1,43.1 					"/>
					<path class="st16" d="M609.2,45.5l5.8-0.4c0,0-1.1,1.3-3,2C610.7,47.5,609.4,46.8,609.2,45.5C609.2,45.5,609.2,45.5,609.2,45.5
						z"/>
					<circle class="st9" cx="629.8" cy="40.3" r="4.8"/>
					<line class="st17" x1="626.5" y1="42.5" x2="631" y2="39.5"/>
					<line class="st18" x1="623" y1="75.5" x2="623" y2="148.9"/>
					<path class="st8" d="M622.9,16.7c-1.2,0.1-2.3,0.4-3.3,0.7c3.3,5.2,9.1,12,18.4,16.1c1-2.3,1.5-4.7,1.2-7.1
						C637.6,16.9,630,16.1,622.9,16.7z"/>
					<path class="st7" d="M625.4,31.6c0,0,1.5,5.1,1.9,8.7c1.8-5.2,2.1-7.8,2.1-7.8L625.4,31.6z"/>
					<path class="st19" d="M619.6,41.4c0,1-1,1.8-2.3,1.8s-2.3-0.8-2.3-1.8c0-1,1-1.8,2.3-1.8S619.6,40.4,619.6,41.4z"/>
				</g>
			</g>
		</g>
		<g>
			<ellipse class="st0" cx="447.4" cy="335.2" rx="61.8" ry="5.5"/>
			<g>
				<polygon class="st9" points="483.4,160.4 488.7,325.7 453.2,325.7 453.2,192.2 449.7,192.2 449.7,160.2 				"/>
				<path class="st7" d="M453.2,325.7v8h43.5c0,0,1-8-8-8C464.2,325.7,453.2,325.7,453.2,325.7z"/>
				<path class="st7" d="M485.1,216l-1.8-55.6l-33.7-0.1v32h3.5v23.3C461.5,214.7,473.2,214.2,485.1,216z"/>
				
					<ellipse transform="matrix(0.9228 -0.3852 0.3852 0.9228 -61.2722 201.29)" class="st20" cx="471.8" cy="253.6" rx="10.6" ry="10.6"/>
				<polygon class="st21" points="453.2,313.2 453.2,325.7 488.7,325.7 488.3,313.2 				"/>
				<polygon class="st16" points="453.2,319.5 488.5,319.5 488.4,316.7 453.2,316.7 				"/>
				<polygon class="st22" points="449.7,160.2 449.7,192.2 453.2,192.2 454.1,160.3 				"/>
				<path class="st23" d="M485.1,216l-0.3-9.3c-10.9-0.6-22.8-0.2-31.7,0.4v8.4C461.5,214.7,473.2,214.2,485.1,216z"/>
				<path class="st16" d="M487.6,327.1c0,0.8-0.6,1.4-1.4,1.4h-15.6c-0.8,0-1.4-0.6-1.4-1.4l0,0c0-0.8,0.6-1.4,1.4-1.4h15.6
					C486.9,325.7,487.6,326.3,487.6,327.1L487.6,327.1z"/>
				<polygon class="st9" points="416,160.4 410.6,325.7 446.1,325.7 446.1,192.2 449.7,192.2 449.7,160.2 				"/>
				<path class="st7" d="M446.1,325.7v8h-43.5c0,0-1-8,8-8C435.1,325.7,446.1,325.7,446.1,325.7z"/>
				<path class="st7" d="M414.2,216l1.8-55.6l33.7-0.1v32h-3.5v23.3C437.9,214.7,426.1,214.2,414.2,216z"/>
				
					<ellipse transform="matrix(0.9661 -0.2582 0.2582 0.9661 -50.9774 118.9732)" class="st20" cx="427.5" cy="253.6" rx="10.6" ry="10.6"/>
				<polygon class="st21" points="446.1,313.2 446.1,325.7 410.6,325.7 411,313.2 				"/>
				<polygon class="st16" points="446.1,319.5 410.8,319.5 410.9,316.7 446.1,316.7 				"/>
				<polygon class="st23" points="449.7,160.2 449.7,192.2 446.1,192.2 445.2,160.3 				"/>
				<path class="st23" d="M414.2,216l0.3-9.3c10.9-0.6,22.8-0.2,31.7,0.4v8.4C437.9,214.7,426.1,214.2,414.2,216z"/>
				<path class="st16" d="M411.8,327.1c0,0.8,0.6,1.4,1.4,1.4h15.6c0.8,0,1.4-0.6,1.4-1.4l0,0c0-0.8-0.6-1.4-1.4-1.4h-15.6
					C412.4,325.7,411.8,326.3,411.8,327.1L411.8,327.1z"/>
			</g>
			<g>
				<path class="st9" d="M421,52l-0.2,0.1c-11.3,4-19.4,14.1-20.9,26.1l-4.9,39.3c-1.4,11.6,7.6,21.9,19.3,21.9h2.6L421,52z"/>
				<polygon class="st21" points="478.4,52 449.7,42.4 421,52 416,160.4 449.7,160.2 483.4,160.4 				"/>
				<path class="st9" d="M429.3,62.3c0,4.4,3.5,7.9,7.9,7.9h12.4h12.4c4.4,0,7.9-3.5,7.9-7.9V49.2l-20.4-6.9l-20.4,6.9V62.3z"/>
				<path class="st24" d="M460.9,21.5h-22.6v-13c0-4.7,3.8-8.4,8.4-8.4h5.8c4.7,0,8.4,3.8,8.4,8.4V21.5z"/>
				<rect x="441.9" y="32.7" class="st9" width="15.2" height="19.3"/>
				<path class="st12" d="M441.9,32.7v12c12.5,1,15.2-8.9,15.2-8.9v-3.1H441.9z"/>
				<circle class="st9" cx="439.5" cy="21.5" r="3.9"/>
				<path class="st9" d="M449.7,39.5h-0.2c-5.1,0-9.3-4.2-9.3-9.3v-18c0-3.4,2.8-6.2,6.2-6.2h6.3c3.4,0,6.2,2.8,6.2,6.2v18
					C458.9,35.3,454.8,39.5,449.7,39.5z"/>
				<path class="st9" d="M463.7,21.5c0,2.2-1.8,3.9-3.9,3.9c-2.2,0-3.9-1.8-3.9-3.9s1.8-3.9,3.9-3.9
					C461.9,17.5,463.7,19.3,463.7,21.5z"/>
				<path class="st25" d="M451.7,17.5c0,0,2.4-1.5,5.3,0"/>
				<path class="st26" d="M451.7,13.4c0,0,2.1-1.2,5.3,0"/>
				<path class="st25" d="M447.6,17.5c0,0-2.4-1.5-5.3,0"/>
				<path class="st26" d="M447.6,13.4c0,0-2.1-1.2-5.3,0"/>
				<path class="st24" d="M457,24.3h-7.4h-7.5c0,0-1.4-1.9-2-5.3v11.2c0,5.1,4.2,9.3,9.5,9.3c5.1,0,9.3-4.2,9.3-9.3V19
					C458.4,22.3,457,24.3,457,24.3z"/>
				<path class="st16" d="M449.7,26.3h-5.8c0,0,1.3,3.7,5.8,3.7c4.5,0,5.8-3.7,5.8-3.7H449.7z"/>
				<path class="st24" d="M448.2,4.7c0,0,3.4,8.3,6.5,6.1c3.1-2.2,0.8-6.7,0.8-6.7L448.2,4.7z"/>
				<path class="st21" d="M462.6,25.6c0,0.8-0.6,1.4-1.4,1.4s-1.4-0.6-1.4-1.4s0.6-1.4,1.4-1.4S462.6,24.8,462.6,25.6z"/>
				<path class="st9" d="M478.4,52l0.2,0.1c11.3,4,19.4,14.1,20.9,26.1l4.9,39.3c1.4,11.6-7.6,21.9-19.3,21.9h-2.6L478.4,52z"/>
				<path class="st9" d="M481.9,127.9c-24.8-4.7-50.8-2.1-64.4-0.2l-1.5,32.6l33.7-0.1l33.7,0.1L481.9,127.9z"/>
				<path class="st10" d="M397.3,73.4l21.1,57.9c2.5,6.8-1.1,14.4-7.9,16.8l-0.2,0.1c-6.7,2.3-14-1.1-16.5-7.7l-25.5-66.8
					L397.3,73.4z"/>
				<path class="st10" d="M502,73.4l-21.1,57.9c-2.5,6.8,1.1,14.4,7.9,16.8l0.2,0.1c6.7,2.3,14-1.1,16.5-7.7L531,73.7L502,73.4z"/>
				<circle class="st27" cx="449.3" cy="145.8" r="2.9"/>
				<polyline class="st15" points="451.2,18.6 451.2,24.2 448.2,23.2 				"/>
				<polygon class="st16" points="449.3,73.2 451.8,78.2 457.4,79 453.3,83 454.3,88.6 449.3,85.9 444.3,88.6 445.2,83 441.2,79 
					446.8,78.2 				"/>
				<path class="st28" d="M417.7,123.4c45-8.8,59.3-46.9,49.7-34.8c-8.7,10.8-38,17-49,19L417.7,123.4z"/>
			</g>
		</g>
		<g>
			<ellipse class="st0" cx="275.1" cy="335.2" rx="61.8" ry="5.5"/>
			<g>
				<g>
					<path class="st1" d="M278.4,56.3l24.3,5.7c0,0-4.7,74.1-3.7,98.2c-27,0-27,0-27,0V100V56.3H278.4z"/>
					<path class="st1" d="M265.7,56.3L241.4,62c0,0,4.7,74.1,3.7,98.2c27,0,27,0,27,0V100V56.3H265.7z"/>
					<polygon class="st3" points="273,126.6 287.5,58.4 278.4,56.3 272,56.3 265.7,56.3 254,59.1 					"/>
					<path class="st29" d="M302.7,62l0.1,0c8.7,2.4,14.9,10,15.5,19l1.3,49.1l-23.5,3.2C296.1,133.4,298.3,75.4,302.7,62z"/>
					<polygon class="st29" points="264.9,38.7 264.9,56.3 271.7,100 278.4,56.3 278.4,44.8 					"/>
					<path class="st30" d="M316.4,76.6l-19.7,50.5c-2.3,6.3,1,13.4,7.4,15.6l0.2,0.1c6.2,2.2,13-1,15.3-7.1l23.7-58.8L316.4,76.6z"
						/>
					<path class="st29" d="M241.4,62l-0.1,0c-8.7,2.4-14.9,10-15.5,19l-1.3,49.1l23.5,3.2C247.9,133.4,245.7,75.4,241.4,62z"/>
					<path class="st30" d="M227.7,76.8l19.7,50.4c2.3,6.3-1,13.4-7.4,15.6l-0.2,0.1c-6.2,2.2-13-1-15.3-7.1l-23.7-58.6L227.7,76.8z"
						/>
					<path class="st31" d="M276.6,44l-11.3-1.6c0,0,1.3,8.8,13.1,11.3v-8.9L276.6,44z"/>
					<circle class="st24" cx="269.8" cy="22.7" r="19.5"/>
					<path class="st29" d="M285.4,27.1v17.6c0,2.9-2.4,5.3-5.3,5.2c-4.9-0.1-11.9-1.4-14.8-7.6c-1.1-5.7-0.3-10.9,0.6-14.3
						c0.6-2.4,2.6-4.3,5.1-4.7c3-0.5,7.4-1,11.2-0.2C284.2,23.6,285.4,25.2,285.4,27.1z"/>
					<polyline class="st32" points="282.5,33.2 282.9,38.7 280.3,38.7 					"/>
					<path class="st16" d="M282.9,41.2h-6.3C276.6,41.2,281.1,45.4,282.9,41.2z"/>
					<path class="st26" d="M278.4,32.4c0,0-1.9-1.1-5.5,0"/>
					<path class="st33" d="M278.4,28.2c0,0-1.9-1.1-5.5,0"/>
					<path class="st29" d="M266.4,36.4c0,2.1-1.7,3.9-3.9,3.9c-2.1,0-3.9-1.7-3.9-3.9c0-2.1,1.7-3.9,3.9-3.9
						C264.7,32.6,266.4,34.3,266.4,36.4z"/>
					<line class="st32" x1="261.3" y1="35.5" x2="264.9" y2="39.5"/>
				</g>
				<g>
					<polygon class="st2" points="245.1,160.2 239,325.7 269.8,325.7 272,192.2 272,160.2 					"/>
					<polygon class="st2" points="299,160.2 313.3,325.7 281.7,325.7 272,192.2 272,160.2 					"/>
					<path class="st1" d="M269.8,325.7v8h-37.7c0,0,0.3-6.6,7-8C255,325.7,269.8,325.7,269.8,325.7z"/>
					<path class="st1" d="M281.7,325.7v8h37.5c0,0-1.2-6.3-5.9-8C287.6,325.7,281.7,325.7,281.7,325.7z"/>
					<polygon class="st34" points="305.7,325.7 313.3,325.7 299,160.2 290.7,160.2 					"/>
					<polygon class="st35" points="252.8,160.2 245.1,160.2 239,325.7 246,325.7 					"/>
					<line class="st36" x1="263.1" y1="192.2" x2="282.9" y2="192.2"/>
					<path class="st35" d="M309.6,327.3c0,0.9-0.7,1.6-1.6,1.6h-12.7c-0.9,0-1.6-0.7-1.6-1.6l0,0c0-0.9,0.7-1.6,1.6-1.6H308
						C308.9,325.7,309.6,326.4,309.6,327.3L309.6,327.3z"/>
					<path class="st35" d="M255.5,327.3c0,0.9-0.7,1.6-1.6,1.6h-9.9c-0.9,0-1.6-0.7-1.6-1.6l0,0c0-0.9,0.7-1.6,1.6-1.6h9.9
						C254.8,325.7,255.5,326.4,255.5,327.3L255.5,327.3z"/>
					<line class="st36" x1="272" y1="192.2" x2="272" y2="160.2"/>
				</g>
			</g>
		</g>
		<g>
			<ellipse class="st0" cx="104.4" cy="335.2" rx="61.8" ry="5.5"/>
			<path class="st9" d="M143,145.4c0,0,2.6,56.9,0.8,86c-0.3,5.6-2.7,10.9-6.6,14.9C83.7,302.1,74,312.7,74,312.7s5.3,7-2.1,17
				L54.3,297l62-68l1.3-85.5L143,145.4z"/>
			<path class="st20" d="M116.2,229.2L54.3,297l17.5,32.7c7.5-10,2.1-17,2.1-17s8-8.7,49.6-52.2
				C122.6,252.2,120.4,238.2,116.2,229.2z"/>
			<path class="st20" d="M143.9,228.8c-0.5-0.1-1.1-0.1-1.7-0.1c-5.7,0-10.3,4.6-10.3,10.3c0,3.4,1.7,6.5,4.3,8.4
				c0.3-0.4,0.7-0.7,1-1.1c3.9-4,6.2-9.3,6.6-14.9C143.8,230.6,143.9,229.7,143.9,228.8z"/>
			<path class="st1" d="M70.3,318.2l4.7-3.4c-0.5-1.3-1.1-2.1-1.1-2.1s2.4-2.6,11.4-12.2l-12.9-23.5l-13.3,14.5L70.3,318.2z"/>
			<path class="st7" d="M54.3,297l17.5,32.7c7.5-10,2.1-17,2.1-17l-12.8-23.2L54.3,297z"/>
			<path class="st9" d="M92.4,145.4c0,0-5.4,24.9-4,89.3c1.3,64.3,4,91,4,91h25.4V143.5L92.4,145.4z"/>
			<path class="st1" d="M88.7,184.2c8.8-0.1,19.9,0.9,28.9,5.2v-45.8l-25.3,1.9C92.4,145.4,89.9,156.9,88.7,184.2z"/>
			<path class="st1" d="M144.2,185.8c-0.4-21.5-1.3-40.4-1.3-40.4l-25.3-1.9l-0.7,41.8l0.7,4C117.7,189.4,132,185,144.2,185.8z"/>
			<path class="st37" d="M68.7,168.4"/>
			<path class="st7" d="M92.3,325.7c0,0-6.6,2.7-6.6,8c32,0,32,0,32,0v-8H92.3z"/>
			<path class="st1" d="M91.2,310.7c0.6,10.3,1.1,15,1.1,15h25.4v-15H91.2z"/>
			
				<ellipse transform="matrix(0.9239 -0.3827 0.3827 0.9239 -88.9727 58.3742)" class="st20" cx="102.2" cy="252.8" rx="9.9" ry="9.9"/>
			<line class="st38" x1="117.7" y1="189.4" x2="117.7" y2="147.6"/>
			<line class="st15" x1="117.7" y1="189.4" x2="117" y2="267.4"/>
			<path class="st3" d="M133.2,186.2c3.6-0.4,7.4-0.6,11-0.4c-0.4-21.5-1.3-40.4-1.3-40.4l-12-0.9L133.2,186.2z"/>
			<path class="st4" d="M102.4,144.7l-10,0.8c0,0-2.5,11.4-3.6,38.8c3.1,0,6.5,0.1,10,0.4L102.4,144.7z"/>
			<path class="st2" d="M117,9.2c0,0,20.4,0.8,20.2,21.7c-0.2,20.9-11,38.9-15.3,42.3c-4.3,3.4-35.8,28.5-42.8,24.5
				c-7-4.1-19.8-27.2-5.4-37.7c14.5-10.5,18.9-23.5,22.5-36.8C99.9,9.9,117,9.2,117,9.2z"/>
			<path class="st9" d="M137.5,63.2l0.1,0c7.1,2.2,12.1,8.5,12.8,15.9l3.7,40.6H139l-7-22.1L137.5,63.2z"/>
			<path class="st9" d="M97.8,63.2l-0.1,0c-7.1,2.2-12.1,8.5-12.8,15.9l-3.7,40.6h15.2l7-22.1L97.8,63.2z"/>
			<path class="st7" d="M135.8,103.7c0,0,0,0,1.7-4.6c4.1-11.1,0-35.9,0-35.9l-19.9-6.1l-19.9,6.1c0,0-4.1,24.8,0,35.9
				c1.7,4.6,1.7,4.6,1.7,4.6l-7.2,41.8c0,0,6.7,2.2,25.3,2.2s25.3-2.2,25.3-2.2L135.8,103.7z"/>
			<path class="st9" d="M134.3,65.8v-3.5l-16.6-5.1L101,62.3v3.5c0,9.2,7.4,16.6,16.6,16.6S134.3,75,134.3,65.8z"/>
			<path class="st10" d="M155,75.2l-15.4,40.2c-1.5,4,0.1,8.6,3.9,10.7l0.2,0.1c4.8,2.7,10.8,0.3,12.5-4.8l15.2-46.1H155z"/>
			<path class="st10" d="M80.3,75.2l15.4,40.2c1.5,4-0.1,8.6-3.9,10.7l-0.2,0.1c-4.8,2.7-10.8,0.3-12.5-4.8L64,75.2H80.3z"/>
			<path class="st39" d="M99.6,103.7c0,0,10.8,2.9,21.6,1.1c10.8-1.8,4.1,6.5-7.1,7.5c-11.3,1-15.9,0-15.9,0L99.6,103.7z"/>
			<rect x="112.5" y="46.6" class="st9" width="10.4" height="16.6"/>
			<path class="st10" d="M110.3,37.3c0,1.9-1.5,3.4-3.4,3.4c-1.9,0-3.4-1.5-3.4-3.4s1.5-3.4,3.4-3.4
				C108.7,33.9,110.3,35.4,110.3,37.3z"/>
			<path class="st31" d="M112.5,46.6v9.6c7.1-0.9,10.4-6.9,10.4-6.9v-2.7H112.5z"/>
			<path class="st10" d="M125.1,37.3c0,1.9,1.5,3.4,3.4,3.4c1.9,0,3.4-1.5,3.4-3.4s-1.5-3.4-3.4-3.4
				C126.6,33.9,125.1,35.4,125.1,37.3z"/>
			<path class="st9" d="M106.9,33.1c0.8,10.7,4.3,18.4,10.8,18.4c6.6,0,10-8.1,10.8-19c0.3-4.2-1.3-7.2-3.3-9.2
				C122,26.3,114.7,32.5,106.9,33.1z"/>
			<path class="st16" d="M113.3,44.2c0.9,1.5,2.5,2.4,4.4,2.4c1.8,0,3.5-1,4.4-2.4H113.3z"/>
			<path class="st40" d="M114.3,37.5c0,0.4-0.4,0.8-0.9,0.8l0,0c-0.5,0-0.9-0.4-0.9-0.8v-1.8c0-0.4,0.4-0.8,0.9-0.8l0,0
				c0.5,0,0.9,0.4,0.9,0.8V37.5z"/>
			<path class="st40" d="M121,37.5c0,0.4,0.4,0.8,0.9,0.8l0,0c0.5,0,0.9-0.4,0.9-0.8v-1.8c0-0.4-0.4-0.8-0.9-0.8l0,0
				c-0.5,0-0.9,0.4-0.9,0.8V37.5z"/>
			<path class="st41" d="M118.9,31c0,0,2.8-2.3,6.1,0"/>
		</g>
		<g>
			<path class="st42" d="M0,70.3c0,0,125.2,29.1,355.8,15.9C586.3,73,750,96.1,750,96.1v115.1c0,0-134.9-30.4-427.3-4.8
				C156.2,218.4,0,192.1,0,192.1V70.3z"/>
			<path class="st43" d="M355.8,183.8C125.2,197,0,167.9,0,167.9v24.2c0,0,156.2,26.3,322.7,14.3c292.4-25.6,427.3,4.8,427.3,4.8
				v-17.5C750,193.7,586.3,170.5,355.8,183.8z"/>
			<path class="st44" d="M355.8,86.2C125.2,99.5,0,70.3,0,70.3v77c0,0,125.2,29.1,355.8,15.9C586.3,150,750,173.1,750,173.1v-77
				C750,96.1,586.3,73,355.8,86.2z"/>
			<path class="st1" d="M355.8,86.2C125.2,99.5,0,70.3,0,70.3v57.8c0,0,125.2,29.1,355.8,15.9c230.6-13.2,394.2,9.9,394.2,9.9V96.1
				C750,96.1,586.3,73,355.8,86.2z"/>
			<path class="st45" d="M355.8,86.2C125.2,99.5,0,70.3,0,70.3v38.5c0,0,125.2,29.1,355.8,15.9s394.2,9.9,394.2,9.9V96.1
				C750,96.1,586.3,73,355.8,86.2z"/>
			<path class="st46" d="M355.8,86.2C125.2,99.5,0,70.3,0,70.3v19.6c0,0,125.2,29.1,355.8,15.9c230.6-13.2,394.2,9.9,394.2,9.9V96.1
				C750,96.1,586.3,73,355.8,86.2z"/>
		</g>
		<linearGradient id="SVGID_1_" gradientUnits="userSpaceOnUse" x1="86.3528" y1="140.7733" x2="767.619" y2="140.7733">
			<stop  offset="0" style="stop-color:#26303A"/>
			<stop  offset="2.178648e-02" style="stop-color:#454E56"/>
			<stop  offset="6.519999e-02" style="stop-color:#7D8389"/>
			<stop  offset="0.1074" style="stop-color:#ACAFB3"/>
			<stop  offset="0.1474" style="stop-color:#D0D2D4"/>
			<stop  offset="0.1846" style="stop-color:#EAEBEC"/>
			<stop  offset="0.218" style="stop-color:#FAFAFA"/>
			<stop  offset="0.2444" style="stop-color:#FFFFFF"/>
			<stop  offset="0.2934" style="stop-color:#E8E8E8"/>
			<stop  offset="0.3966" style="stop-color:#ACACAC"/>
			<stop  offset="0.544" style="stop-color:#4D4D4D"/>
			<stop  offset="0.6569" style="stop-color:#000000"/>
			<stop  offset="1" style="stop-color:#FEFEFE"/>
		</linearGradient>
		<path class="st47" d="M355.8,86.2C125.2,99.5,0,70.3,0,70.3v19.6v18.9v19.2v19.2v20.5v24.2c0,0,9.8,1.6,27,3.9
			c1.1,0.1,2.2,0.3,3.3,0.4c9.1,1.2,20,2.5,32.5,3.8c1.6,0.2,3.1,0.3,4.7,0.5c4.8,0.5,9.9,1,15.1,1.5c5.2,0.5,10.7,1,16.3,1.5
			c2.8,0.2,5.7,0.5,8.6,0.7c1.9,0.2,3.9,0.3,5.8,0.5c2,0.1,4,0.3,6,0.4c2,0.1,4,0.3,6.1,0.4c2,0.1,4.1,0.3,6.2,0.4
			c5.2,0.3,10.5,0.7,15.9,1c2.2,0.1,4.3,0.2,6.5,0.3c7.7,0.4,15.5,0.7,23.5,1c1.1,0,2.3,0.1,3.4,0.1c16.1,0.6,32.9,0.9,50.1,0.9
			c29.5,0,60.4-0.9,91.6-3.1c86.8-7.6,159.7-10.3,219.4-10.3c4.7,0,9.3,0,13.9,0.1c1.5,0,3,0,4.5,0c13.5,0.1,26.2,0.4,38.2,0.8
			c1.3,0,2.7,0.1,4,0.1c6.6,0.2,12.9,0.5,19,0.8c1.2,0.1,2.4,0.1,3.6,0.2c8.4,0.4,16.4,0.9,24,1.4c3.2,0.2,6.4,0.4,9.5,0.7
			c2.1,0.1,4.1,0.3,6.1,0.5c1,0.1,2,0.2,2.9,0.2c1.9,0.2,3.9,0.3,5.7,0.5c51.6,4.4,76.5,10,76.5,10v-17.5v-20.5v-19.2v-19.2v-18.9
			V96.1C750,96.1,586.3,73,355.8,86.2z"/>
		<path class="st48" d="M60.3,79.9l-0.7,5.7c0,0,13.2,6,20.9,4.7c7.8-1.3,11.8-7,11.8-7l0,0C80.6,82.2,69.9,81.1,60.3,79.9
			L60.3,79.9z"/>
		<path class="st48" d="M147.1,87.3c0,0,4.1,6.1,12.5,6.8c8.4,0.6,17.2-5.5,17.2-5.5l0,0C166.5,88.3,156.6,87.8,147.1,87.3
			L147.1,87.3z"/>
		<g>
			<path class="st9" d="M153.9,74.9h17.3c1.9,0,3.4,1.4,3.6,3.2l0.9,7.5c0.2,1.4-0.9,2.7-2.4,2.7h0c-1.2,0-2.2-0.8-2.4-2l-0.8-4.3
				h-1.5l0.7,5.5c0.2,1.5-1,2.9-2.5,2.9h-0.1c-1.3,0-2.4-1-2.5-2.3l-0.7-6.4h-1.2l0.7,6c0.2,1.4-0.9,2.6-2.4,2.6h0
				c-1.2,0-2.1-0.8-2.3-2l-1.2-7h-0.9l0.8,6.4c0.2,1.3-0.9,2.5-2.2,2.5h0c-1.1,0-2.1-0.8-2.2-1.9L151,78.3
				C150.7,76.5,152,74.9,153.9,74.9L153.9,74.9z"/>
			<path class="st9" d="M81.5,74.9H64.2c-1.9,0-3.4,1.4-3.6,3.2l-0.9,7.5c-0.2,1.4,0.9,2.7,2.4,2.7h0c1.2,0,2.2-0.8,2.4-2l0.8-4.3
				h1.5L66,87.5c-0.2,1.5,1,2.9,2.5,2.9h0.1c1.3,0,2.4-1,2.5-2.3l0.7-6.4H73l-0.7,6c-0.2,1.4,0.9,2.6,2.4,2.6h0c1.2,0,2.1-0.8,2.3-2
				l1.2-7h0.9l-0.8,6.4c-0.2,1.3,0.9,2.5,2.2,2.5h0c1.1,0,2.1-0.8,2.2-1.9l1.6-10.2C84.7,76.5,83.3,74.9,81.5,74.9L81.5,74.9z"/>
		</g>
		<path class="st48" d="M241.5,89.7c-14.8,0-29-0.1-42.5-0.4l-1.5,5.8c0,0,16.6,6.8,29.9,2.6C235.8,95.1,239.8,91.8,241.5,89.7z"/>
		<path class="st48" d="M318.8,97.7c10.9,4.2,27.7-2.6,27.7-2.6l-0.7-8.3c-14.2,0.7-27.9,1.3-41.3,1.8
			C308,91.7,313.1,95.5,318.8,97.7z"/>
		<g>
			<path class="st29" d="M317.4,76.8h24.3c2.6,0,4.8,1.9,5.1,4.5l1.2,10.5c0.2,2-1.3,3.8-3.4,3.8h-0.1c-1.6,0-3-1.2-3.3-2.8
				l-1.1-6.1h-2.1l1,7.7c0.3,2.1-1.4,4-3.5,4h-0.1c-1.8,0-3.4-1.4-3.5-3.2l-0.9-9h-1.7l1,8.5c0.2,2-1.3,3.7-3.3,3.7h-0.1
				c-1.6,0-3-1.2-3.3-2.8l-1.7-9.8h-1.2l1.2,9c0.2,1.9-1.2,3.6-3.1,3.6h-0.1c-1.6,0-2.9-1.1-3.1-2.7l-2.2-14.3
				C312.9,79,314.8,76.8,317.4,76.8L317.4,76.8z"/>
			<path class="st29" d="M226.7,76.8h-24.3c-2.6,0-4.8,1.9-5.1,4.5L196,91.8c-0.2,2,1.3,3.8,3.4,3.8h0.1c1.6,0,3-1.2,3.3-2.8
				l1.1-6.1h2.1l-1,7.7c-0.3,2.1,1.4,4,3.5,4h0.1c1.8,0,3.4-1.4,3.5-3.2l0.9-9h1.7l-1,8.5c-0.2,2,1.3,3.7,3.3,3.7h0.1
				c1.6,0,3-1.2,3.3-2.8l1.7-9.8h1.2l-1.2,9c-0.2,1.9,1.2,3.6,3.1,3.6h0.1c1.6,0,2.9-1.1,3.1-2.7l2.2-14.3
				C231.1,79,229.2,76.8,226.7,76.8L226.7,76.8z"/>
		</g>
		<path class="st48" d="M394.9,95.1c8.4-2.6,14.7-8.4,17.6-11.4c-15,0.5-30.4,1.2-46.1,2l-1.4,5.8C364.9,91.5,383.2,98.6,394.9,95.1
			z"/>
		<path class="st48" d="M490.5,82.2c2.3,4,6.9,10.3,13.9,12.9c10.7,3.9,29.9-3.6,29.9-3.6l-2.1-9.1
			C518.9,82.2,504.9,82.1,490.5,82.2z"/>
		<g>
			<path class="st9" d="M396.2,71.8H370c-2.8,0-5.2,2.1-5.5,4.9l-1.3,11.3c-0.3,2.2,1.4,4.1,3.6,4.1h0.1c1.8,0,3.3-1.3,3.6-3
				l1.1-6.5h2.2l-1.1,8.3c-0.3,2.3,1.5,4.3,3.8,4.3h0.1c2,0,3.6-1.5,3.8-3.4l1-9.7h1.9l-1,9.1c-0.2,2.1,1.4,4,3.6,4h0.1
				c1.7,0,3.2-1.2,3.5-3l1.9-10.6h1.3l-1.2,9.7c-0.3,2,1.3,3.8,3.4,3.8h0.1c1.7,0,3.1-1.2,3.3-2.9l2.3-15.3
				C401,74.2,398.9,71.8,396.2,71.8L396.2,71.8z"/>
			<path class="st9" d="M503.1,71.8h26.1c2.8,0,5.2,2.1,5.5,4.9l1.3,11.3c0.3,2.2-1.4,4.1-3.6,4.1h-0.1c-1.8,0-3.3-1.3-3.6-3
				l-1.1-6.5h-2.2l1.1,8.3c0.3,2.3-1.5,4.3-3.8,4.3h-0.1c-2,0-3.6-1.5-3.8-3.4l-1-9.7H516l1,9.1c0.2,2.1-1.4,4-3.6,4h-0.1
				c-1.7,0-3.2-1.2-3.5-3l-1.9-10.6h-1.3l1.2,9.7c0.3,2-1.3,3.8-3.4,3.8h-0.1c-1.7,0-3.1-1.2-3.3-2.9l-2.3-15.3
				C498.3,74.2,500.4,71.8,503.1,71.8L503.1,71.8z"/>
		</g>
		<path class="st48" d="M562.4,83l-1.2,10.8c0,0,13.2,3.8,21.1,1.3c5.6-1.7,9-7.8,10.5-11.1C583.1,83.6,572.9,83.2,562.4,83z"/>
		<path class="st48" d="M663.2,96.1c11.8,0.7,21.2-4.2,21.2-4.2l-0.8-2.6c-8.9-0.7-18.6-1.4-29.1-2.1
			C654.5,90.8,655.8,95.7,663.2,96.1z"/>
		<g>
			<path class="st9" d="M662.2,78.2h20.2c2.2,0,4,1.6,4.2,3.8l1,8.7c0.2,1.7-1.1,3.1-2.8,3.1h-0.1c-1.4,0-2.5-1-2.8-2.3l-0.9-5.1
				h-1.7l0.8,6.4c0.2,1.8-1.2,3.3-2.9,3.3h-0.1c-1.5,0-2.8-1.1-2.9-2.7l-0.8-7.5h-1.4l0.8,7c0.2,1.6-1.1,3.1-2.8,3.1h-0.1
				c-1.3,0-2.5-1-2.7-2.3l-1.5-8.2h-1l1,7.5c0.2,1.6-1,2.9-2.6,2.9h-0.1c-1.3,0-2.4-0.9-2.6-2.2l-1.8-11.9
				C658.5,80,660.1,78.2,662.2,78.2L662.2,78.2z"/>
			<path class="st9" d="M583.9,78.2h-20.2c-2.2,0-4,1.6-4.2,3.8l-1,8.7c-0.2,1.7,1.1,3.1,2.8,3.1h0.1c1.4,0,2.5-1,2.8-2.3l0.9-5.1
				h1.7l-0.8,6.4c-0.2,1.8,1.2,3.3,2.9,3.3h0.1c1.5,0,2.8-1.1,2.9-2.7l0.8-7.5h1.4l-0.8,7c-0.2,1.6,1.1,3.1,2.8,3.1h0.1
				c1.3,0,2.5-1,2.7-2.3l1.5-8.2h1l-1,7.5c-0.2,1.6,1,2.9,2.6,2.9h0.1c1.3,0,2.4-0.9,2.6-2.2l1.8-11.9C587.6,80,586,78.2,583.9,78.2
				L583.9,78.2z"/>
		</g>
	</g>
</g>
</svg>
